<?xml version="1.0" encoding="iso-8859-1"?>
<!-- Generator: Adobe Illustrator 19.0.0, SVG Export Plug-In . SVG Version: 6.00 Build 0)  -->
<svg version="1.1" id="Layer_1" xmlns="http://www.w3.org/2000/svg" xmlns:xlink="http://www.w3.org/1999/xlink" x="0px" y="0px"
	 viewBox="0 0 512 512" style="enable-background:new 0 0 512 512;" xml:space="preserve">
<rect x="285.784" y="239.323" style="fill:#894BA2;" width="75.622" height="264.131"/>
<rect x="327.219" y="239.323" style="fill:#763794;" width="34.187" height="264.131"/>
<rect x="420.983" y="165.148" style="fill:#3FC8F2;" width="75.622" height="338.307"/>
<rect x="462.418" y="165.148" style="fill:#0DAACE;" width="34.187" height="338.307"/>
<rect x="150.595" y="324.096" style="fill:#F77935;" width="75.622" height="179.347"/>
<rect x="192.03" y="324.096" style="fill:#D9510D;" width="34.187" height="179.347"/>
<rect x="15.394" y="413.633" style="fill:#FFDB56;" width="75.622" height="89.822"/>
<rect x="56.833" y="413.633" style="fill:#FBA806;" width="34.187" height="89.822"/>
<path style="fill:#E93233;" d="M33.128,276.476c0,0,167.449-52.121,223.267-182.25h-47.844l96.623-85.678l86.781,85.678h-43.739
	C348.214,94.225,303.491,276.476,33.128,276.476z"/>
<path style="fill:#B32426;" d="M361.412,94.225h30.543L305.173,8.547l-18.011,15.971l60.101,59.338h-30.918l-2.319,10.369
	c0,0-40.471,164.887-277.092,180.984c-2.457,0.844-3.807,1.266-3.807,1.266c270.36,0,315.085-182.246,315.087-182.25L361.412,94.225
	L361.412,94.225z"/>
<path d="M361.412,230.78h-75.627c-4.721,0-8.547,3.827-8.547,8.547v264.127c0,4.72,3.826,8.547,8.547,8.547h75.627
	c4.721,0,8.547-3.827,8.547-8.547V239.326C369.958,234.606,366.133,230.78,361.412,230.78z M352.865,494.907h-58.533V247.873h58.533
	L352.865,494.907L352.865,494.907z"/>
<path d="M496.607,156.599h-75.626c-4.721,0-8.547,3.827-8.547,8.547v99.666c0,4.72,3.826,8.547,8.547,8.547s8.547-3.827,8.547-8.547
	v-91.12h58.532v321.214h-58.532V299c0-4.72-3.826-8.547-8.547-8.547s-8.547,3.827-8.547,8.547v204.453
	c0,4.72,3.826,8.547,8.547,8.547h75.626c4.721,0,8.547-3.827,8.547-8.547V165.146C505.154,160.426,501.327,156.599,496.607,156.599z
	"/>
<path d="M226.216,315.555h-75.627c-4.72,0-8.547,3.827-8.547,8.547v55.194c0,4.72,3.827,8.547,8.547,8.547s8.547-3.827,8.547-8.547
	v-46.647h58.533v162.258h-58.533v-79.611c0-4.72-3.827-8.547-8.547-8.547s-8.547,3.827-8.547,8.547v88.158
	c0,4.72,3.827,8.547,8.547,8.547h75.627c4.72,0,8.547-3.827,8.547-8.547V324.102C234.762,319.382,230.936,315.555,226.216,315.555z"
	/>
<path d="M311.178,2.465c-3.203-3.162-8.309-3.299-11.675-0.312L202.88,87.831c-2.656,2.356-3.581,6.108-2.32,9.428
	c1.26,3.318,4.441,5.514,7.991,5.514h34.445c-7.277,14.495-16.329,28.601-27.005,42.071c-2.932,3.699-2.31,9.074,1.389,12.007
	c3.699,2.933,9.074,2.31,12.007-1.389c14.522-18.32,26.251-37.79,34.863-57.867c1.133-2.64,0.863-5.674-0.719-8.074
	c-1.582-2.399-4.262-3.843-7.136-3.843h-25.324l73.788-65.43l66.272,65.43h-22.917c-3.936,0-7.363,2.687-8.301,6.509
	c-0.106,0.433-11.114,43.776-53.939,87.157c-25.291,25.621-56.5,46.054-92.762,60.73c-32.755,13.258-69.726,21.826-110.367,25.612
	c34.625-16.185,82.418-43.326,122.839-83.711c3.34-3.337,3.342-8.747,0.006-12.086c-3.337-3.34-8.749-3.341-12.086-0.006
	c-68.424,68.363-162.081,98.139-163.016,98.43c-4.034,1.256-6.545,5.269-5.91,9.446c0.635,4.175,4.226,7.263,8.45,7.263
	c62.773,0,118.791-9.791,166.498-29.101c38.432-15.555,71.577-37.279,98.513-64.566c36.584-37.06,51.563-73.952,56.43-88.583h37.385
	c3.467,0,6.59-2.095,7.906-5.301c1.316-3.207,0.565-6.892-1.902-9.327L311.178,2.465z"/>
<path d="M91.021,405.09H15.394c-4.72,0-8.547,3.827-8.547,8.547v89.817c0,4.72,3.827,8.547,8.547,8.547h75.626
	c4.72,0,8.547-3.827,8.547-8.547v-89.817C99.567,408.916,95.741,405.09,91.021,405.09z M82.474,494.907H23.94v-72.723h58.532v72.723
	H82.474z"/>
<g>
</g>
<g>
</g>
<g>
</g>
<g>
</g>
<g>
</g>
<g>
</g>
<g>
</g>
<g>
</g>
<g>
</g>
<g>
</g>
<g>
</g>
<g>
</g>
<g>
</g>
<g>
</g>
<g>
</g>
</svg>
